<svg width="46" height="35" viewBox="0 0 46 35" fill="none" xmlns="http://www.w3.org/2000/svg">
<path fill-rule="evenodd" clip-rule="evenodd" d="M23.4462 17.1877C22.6985 17.1877 22.0928 16.579 22.0928 15.8285C22.0928 15.0776 22.6985 14.4689 23.4462 14.4689C24.194 14.4689 24.7996 15.0776 24.7996 15.8285C24.7996 16.579 24.194 17.1877 23.4462 17.1877ZM36.3866 7.61797C35.5202 5.76922 37.0905 4.46412 38.7146 4.41007C40.3392 4.35549 40.9887 6.36745 40.1767 9.57482C39.3641 12.7822 35.2496 13.8165 32.2172 13.7619C29.1854 13.7079 24.9083 9.52077 21.7678 9.57535C18.6272 9.62992 14.729 13.2183 12.0217 14.632C9.31484 16.0457 7.63484 15.9423 5.05187 17.8803C0.557932 21.2514 -0.551444 27.2369 0.230815 31.0383C0.923195 34.4062 3.05938 34.3448 3.88763 34.3963C5.63399 34.5049 6.51919 33.5902 7.63745 32.2216C9.00445 30.5492 11.0544 30.2553 12.9492 30.3099C14.8445 30.364 15.3649 31.0446 16.0009 32.1256C16.8009 33.4853 17.6412 34.3648 19.075 34.4062C19.7784 34.4267 21.172 34.4241 21.6052 33.2276C22.0384 32.0317 22.9048 29.6393 24.1297 27.0291C25.3545 24.4194 28.9392 22.4888 33.6793 20.9937C38.8102 19.3754 40.8806 17.3508 43.1542 14.6866C45.4283 12.0223 45.7137 8.03883 45.3745 5.93242C44.9053 3.01996 42.6003 0.127452 39.256 0.0057063C35.7329 -0.122337 32.3128 1.92163 31.7845 4.40902C30.7556 8.81181 33.4546 11.0001 34.0582 11.4236C34.6685 11.8513 37.3481 9.64934 36.3866 7.61797Z" fill="white"/>
</svg>
